<svg width="150" height="32" viewBox="0 0 150 32" fill="none" xmlns="http://www.w3.org/2000/svg">
<g clip-path="url(#clip0_2_2)">
<mask id="mask0_2_2" style="mask-type:alpha" maskUnits="userSpaceOnUse" x="-1" y="0" width="151" height="32">
<path d="M-0.161133 0.0245361H149.841V31.9086H-0.161133" fill="white"/>
</mask>
<g mask="url(#mask0_2_2)">
<path fill-rule="evenodd" clip-rule="evenodd" d="M43.6052 8.5874C43.5671 8.46683 43.4915 8.36155 43.3895 8.28683C43.2875 8.21211 43.1643 8.17184 43.0379 8.17187H37.486C37.3596 8.17184 37.2364 8.21211 37.1344 8.28683C37.0324 8.36155 36.9568 8.46683 36.9187 8.5874L29.914 30.8026C29.8573 30.9835 29.8895 31.1803 30.0016 31.3337C30.057 31.409 30.1292 31.4702 30.2125 31.5124C30.2959 31.5546 30.388 31.5766 30.4814 31.5766H34.3037C34.5673 31.5766 34.7997 31.4028 34.8741 31.1497L39.698 14.812C39.698 14.812 39.8241 14.404 40.2608 14.404C40.7051 14.404 40.8131 14.8284 40.8131 14.829L43.0513 22.5755H40.0449C39.9152 22.5754 39.789 22.6178 39.6856 22.6961C39.5821 22.7745 39.5072 22.8845 39.4721 23.0094L38.6093 26.0767C38.5842 26.1652 38.5801 26.2582 38.5971 26.3486C38.6141 26.4389 38.6518 26.524 38.7074 26.5973C38.7629 26.6706 38.8346 26.73 38.917 26.7708C38.9993 26.8116 39.09 26.8328 39.182 26.8326H44.3024L45.6504 31.1586C45.6881 31.2797 45.7636 31.3856 45.8658 31.4607C45.968 31.5359 46.0915 31.5764 46.2183 31.5764H50.0421C50.1356 31.5763 50.2277 31.5542 50.311 31.512C50.3943 31.4697 50.4666 31.4084 50.5218 31.333C50.5771 31.2577 50.6138 31.1704 50.6291 31.0782C50.6444 30.986 50.6377 30.8915 50.6097 30.8024L43.6052 8.5874ZM60.2584 28.153C60.2459 28.0711 60.2165 27.9927 60.172 27.9228C60.1275 27.8529 60.0689 27.793 60.0001 27.747C59.9312 27.7008 59.8534 27.6697 59.7718 27.6555C59.6901 27.6412 59.6064 27.6443 59.526 27.6644C58.9055 27.8183 58.3111 27.9035 57.8525 27.9035C56.9826 27.9035 56.595 27.5263 56.595 26.6807V18.1694H60.008C60.1658 18.1694 60.3171 18.1067 60.4288 17.9952C60.5404 17.8836 60.6032 17.7323 60.6033 17.5745V14.9196C60.6033 14.591 60.337 14.3251 60.0084 14.3251H56.595V10.2265C56.595 10.1414 56.5768 10.0573 56.5416 9.97983C56.5063 9.90239 56.4549 9.83341 56.3907 9.77756C56.3265 9.7217 56.2511 9.68026 56.1695 9.65604C56.088 9.63183 56.0021 9.62539 55.9179 9.63717L52.4037 10.1267C52.2614 10.1465 52.1311 10.2171 52.0368 10.3254C51.9425 10.4337 51.8905 10.5724 51.8905 10.716V14.3249H49.9762C49.8185 14.3249 49.6672 14.3875 49.5557 14.499C49.4441 14.6105 49.3814 14.7617 49.3813 14.9195V17.5743C49.3813 17.7321 49.4439 17.8834 49.5555 17.995C49.6671 18.1066 49.8184 18.1693 49.9762 18.1693H51.8905V27.2306C51.8905 30.3425 53.5261 31.9198 56.7521 31.9198C57.6701 31.9198 59.2291 31.7082 60.2486 31.3539C60.3796 31.3085 60.4907 31.2187 60.5624 31.1C60.6342 30.9813 60.6621 30.8413 60.6415 30.7042L60.2581 28.1528L60.2584 28.153ZM66.7641 7.73821H63.2499C63.1717 7.73821 63.0943 7.75361 63.0221 7.78354C62.9499 7.81346 62.8843 7.85732 62.829 7.91261C62.7738 7.96789 62.73 8.03352 62.7001 8.10575C62.6702 8.17798 62.6548 8.25539 62.6549 8.33355V30.9816C62.6549 31.1394 62.7176 31.2908 62.8292 31.4023C62.9407 31.5139 63.0921 31.5766 63.2499 31.5766H66.7641C66.9219 31.5766 67.0732 31.5139 67.1848 31.4023C67.2964 31.2908 67.359 31.1394 67.359 30.9816V8.33317C67.359 8.00415 67.0927 7.73821 66.7641 7.73821ZM78.1582 25.2513V27.3207C77.5757 27.631 76.5203 28.0756 75.2507 28.0756C74.1552 28.0756 73.8212 27.7417 73.8212 26.6458C73.8212 25.5821 74.0279 25.2511 75.3194 25.2511H78.1582V25.2513ZM75.8005 13.9811C74.0213 13.9811 71.8562 14.2616 70.2847 14.6962C70.1435 14.735 70.0216 14.8247 69.9425 14.9479C69.8633 15.0712 69.8325 15.2193 69.856 15.3639L70.2674 17.915C70.28 17.9937 70.3084 18.069 70.3507 18.1365C70.3931 18.204 70.4486 18.2623 70.514 18.3079C70.6459 18.4004 70.8098 18.4352 70.9683 18.4038C72.4296 18.1198 73.9383 17.963 75.2161 17.963C77.7527 17.963 78.1582 18.4985 78.1582 20.2172V21.716H74.3913C70.7909 21.716 69.2546 23.2009 69.2546 26.6809C69.2546 30.0104 70.9388 31.92 73.8755 31.92C75.574 31.92 77.2752 31.4485 78.705 30.5865L78.8552 31.138C78.8895 31.264 78.9643 31.3752 79.0681 31.4544C79.1718 31.5337 79.2988 31.5766 79.4293 31.5766H82.2674C82.4252 31.5766 82.5765 31.5139 82.6881 31.4023C82.7997 31.2908 82.8624 31.1394 82.8624 30.9816V20.2864C82.8624 15.6899 80.9483 13.9811 75.8003 13.9811H75.8005ZM91.6685 20.8991C89.4879 20.337 89.4879 20.3143 89.4879 19.118C89.4879 18.3145 89.5676 17.9286 91.3642 17.9286C92.5948 17.9286 94.4108 18.1439 95.5769 18.3434C95.7375 18.3708 95.9018 18.3315 96.0321 18.2338C96.0967 18.1859 96.1508 18.1253 96.1913 18.0559C96.2319 17.9864 96.2579 17.9095 96.2678 17.8297L96.5991 15.1514C96.6172 15.0055 96.5806 14.8581 96.4965 14.7376C96.4124 14.617 96.2867 14.5318 96.1435 14.4985C94.795 14.1842 92.9187 13.9809 91.364 13.9809C85.9595 13.9809 84.8522 16.0208 84.8522 19.0828C84.8522 22.4499 85.4777 23.5815 89.6198 24.5905C92.3464 25.2468 92.3464 25.7345 92.3464 26.5431C92.3464 27.6049 92.2557 27.9723 90.4705 27.9723C89.0331 27.9723 87.3697 27.7487 85.9063 27.3584C85.8269 27.3373 85.744 27.3328 85.6629 27.3452C85.5817 27.3577 85.5039 27.3868 85.4346 27.4308C85.3652 27.4748 85.3057 27.5326 85.2598 27.6007C85.2138 27.6688 85.1825 27.7457 85.1678 27.8265L84.7031 30.3678C84.6771 30.5096 84.7035 30.656 84.7774 30.7798C84.8513 30.9036 84.9677 30.9964 85.1049 31.0408C86.7009 31.5587 88.9919 31.9198 90.6767 31.9198C95.9095 31.9198 96.982 29.7292 96.982 26.4397C96.982 22.8077 96.3368 22.1345 91.6683 20.8989L91.6685 20.8991ZM105.247 20.8991C103.067 20.337 103.067 20.3143 103.067 19.118C103.067 18.3145 103.146 17.9286 104.943 17.9286C106.174 17.9286 107.99 18.1439 109.156 18.3434C109.317 18.3708 109.481 18.3315 109.611 18.2338C109.676 18.1859 109.73 18.1254 109.77 18.0559C109.811 17.9864 109.837 17.9095 109.847 17.8297L110.178 15.1514C110.196 15.0056 110.16 14.8582 110.076 14.7376C109.992 14.617 109.866 14.5319 109.723 14.4985C108.374 14.1842 106.498 13.9809 104.943 13.9809C99.5388 13.9809 98.4314 16.0208 98.4314 19.0828C98.4314 22.4499 99.0566 23.5815 103.199 24.5905C105.926 25.2468 105.926 25.7345 105.926 26.5431C105.926 27.6049 105.835 27.9723 104.049 27.9723C102.612 27.9723 100.949 27.7487 99.4853 27.3584C99.406 27.3373 99.3231 27.3328 99.2419 27.3453C99.1608 27.3578 99.083 27.387 99.0137 27.431C98.9442 27.4748 98.8846 27.5326 98.8386 27.6007C98.7927 27.6688 98.7613 27.7456 98.7466 27.8265L98.282 30.3678C98.2559 30.5096 98.2823 30.6561 98.3562 30.7799C98.4302 30.9037 98.5465 30.9964 98.6837 31.0408C100.28 31.5587 102.571 31.9198 104.256 31.9198C109.488 31.9198 110.561 29.7292 110.561 26.4397C110.561 22.8077 109.916 22.1345 105.247 20.8989L105.247 20.8991ZM116.809 14.3251H113.295C113.137 14.3251 112.986 14.3877 112.874 14.4992C112.763 14.6107 112.7 14.7619 112.7 14.9196V30.9816C112.7 31.1394 112.763 31.2908 112.874 31.4023C112.986 31.5139 113.137 31.5766 113.295 31.5766H116.809C116.967 31.5766 117.118 31.5139 117.23 31.4023C117.341 31.2908 117.404 31.1394 117.404 30.9816V14.9193C117.404 14.5906 117.138 14.3247 116.809 14.3247V14.3251ZM128.292 25.2513V27.3207C127.709 27.631 126.654 28.0756 125.384 28.0756C124.288 28.0756 123.955 27.7417 123.955 26.6458C123.955 25.5821 124.161 25.2511 125.452 25.2511H128.292V25.2513ZM125.934 13.9811C124.155 13.9811 121.99 14.2616 120.418 14.6962C120.277 14.735 120.155 14.8247 120.076 14.9479C119.997 15.0712 119.966 15.2193 119.989 15.3639L120.4 17.915C120.426 18.0741 120.516 18.2157 120.648 18.3079C120.779 18.4004 120.943 18.4352 121.102 18.4038C122.563 18.1198 124.072 17.963 125.35 17.963C127.886 17.963 128.292 18.4985 128.292 20.2172V21.716H124.525C120.925 21.716 119.388 23.2009 119.388 26.6809C119.388 30.0104 121.072 31.92 124.009 31.92C125.708 31.92 127.409 31.4485 128.838 30.5865L128.989 31.138C129.023 31.264 129.098 31.3752 129.202 31.4544C129.305 31.5337 129.432 31.5766 129.563 31.5766H132.401C132.559 31.5766 132.71 31.5139 132.822 31.4023C132.933 31.2908 132.996 31.1394 132.996 30.9816V20.2864C132.996 15.6899 131.082 13.9811 125.934 13.9811V13.9811ZM145.994 13.9811C144.131 13.9811 141.594 14.6233 139.451 15.6293L139.194 14.7523C139.158 14.6289 139.083 14.5206 138.98 14.4435C138.877 14.3665 138.752 14.3249 138.623 14.3249H136.02C135.863 14.3249 135.711 14.3875 135.6 14.499C135.488 14.6105 135.425 14.7617 135.425 14.9195V30.9815C135.425 31.1392 135.488 31.2906 135.6 31.4021C135.711 31.5137 135.863 31.5764 136.02 31.5764H139.535C139.692 31.5764 139.844 31.5137 139.955 31.4021C140.067 31.2906 140.13 31.1392 140.13 30.9815V19.8574C141.395 19.2134 143.175 18.5476 144.24 18.5476C145.032 18.5476 145.326 18.8418 145.326 19.633V30.9815C145.326 31.0596 145.341 31.137 145.371 31.2092C145.401 31.2815 145.445 31.3471 145.5 31.4024C145.555 31.4577 145.621 31.5015 145.693 31.5315C145.765 31.5614 145.843 31.5768 145.921 31.5768H149.435C149.593 31.5768 149.744 31.5141 149.856 31.4025C149.968 31.291 150.03 31.1396 150.03 30.9818V19.1865C150.03 15.7324 148.672 13.9811 145.994 13.9811H145.994ZM116.62 7.73746H113.106C112.948 7.73746 112.797 7.80014 112.685 7.91172C112.574 8.02329 112.511 8.17462 112.511 8.33242V11.4394C112.511 11.5972 112.574 11.7485 112.685 11.8601C112.797 11.9717 112.948 12.0344 113.106 12.0344H116.62C116.778 12.0344 116.929 11.9717 117.041 11.8601C117.152 11.7485 117.215 11.5972 117.215 11.4394V8.33242C117.215 8.17462 117.152 8.02329 117.041 7.91172C116.929 7.80014 116.778 7.73746 116.62 7.73746" fill="#205081"/>
</g>
<mask id="mask1_2_2" style="mask-type:alpha" maskUnits="userSpaceOnUse" x="0" y="0" width="151" height="32">
<path d="M0.02771 0.0245361H150.03V31.9086H0.02771" fill="white"/>
</mask>
<g mask="url(#mask1_2_2)">
<path fill-rule="evenodd" clip-rule="evenodd" d="M28.718 7.8387C28.6055 7.75305 28.468 7.70661 28.3266 7.70649C28.2492 7.70649 28.1712 7.72084 28.0969 7.74918C26.7055 8.28124 25.2927 8.68524 24.0029 8.98575C23.7399 9.04713 23.5275 9.24262 23.4393 9.47682C22.4996 12.0508 20.1003 14.5015 17.583 17.0687C17.4819 17.1646 17.3405 17.2912 17.11 17.2912C16.8802 17.2912 16.7398 17.1684 16.6371 17.0687C14.1201 14.5015 11.7206 12.0597 10.781 9.48532C10.6928 9.25112 10.4801 9.05563 10.2176 8.99425C8.92718 8.69355 7.51061 8.27708 6.12086 7.74521C6.04728 7.7171 5.9692 7.70263 5.89043 7.70252C5.75018 7.70215 5.61376 7.74824 5.50248 7.8336C5.41621 7.89955 5.34804 7.98628 5.30435 8.08569C5.26065 8.1851 5.24285 8.29397 5.2526 8.40212C5.46603 10.5425 6.31143 12.6348 7.83774 14.8277C9.27244 16.8891 11.1438 18.7971 12.9531 20.6424C16.2867 24.0425 19.436 27.254 19.7124 30.9781C19.7243 31.1402 19.7972 31.2917 19.9163 31.4024C20.0354 31.513 20.192 31.5744 20.3545 31.5743H24.2711C24.3583 31.5742 24.4446 31.5564 24.5248 31.5219C24.605 31.4875 24.6773 31.4371 24.7375 31.3739C24.7976 31.3107 24.8443 31.236 24.8748 31.1542C24.9052 31.0724 24.9188 30.9853 24.9146 30.8982C24.7912 28.4084 23.8542 25.9151 22.0501 23.2765C21.669 22.7215 21.2664 22.1817 20.8432 21.6582C20.6713 21.4434 20.7434 21.1769 20.8753 21.0424C21.005 20.9093 21.1359 20.7765 21.2672 20.642C23.0766 18.7967 24.9476 16.8887 26.3827 14.8271C27.9088 12.6343 28.7544 10.5542 28.9676 8.41421C28.989 8.19927 28.8912 7.97092 28.7178 7.83851L28.718 7.8387ZM34.4239 0.35318C34.3477 0.251446 34.2489 0.168802 34.1354 0.111769C34.0218 0.0547358 33.8965 0.0248729 33.7694 0.0245361C33.6372 0.0245361 33.5065 0.0577783 33.3921 0.120296C28.5914 2.74812 23.0266 4.13825 17.2985 4.13957C11.5707 4.13787 6.00564 2.74812 1.20537 0.120107C1.08949 0.0575054 0.959885 0.0246652 0.828182 0.0245361C0.571311 0.0245361 0.326906 0.147305 0.173728 0.352424C-0.0534898 0.654626 -0.0604782 1.16157 0.32615 1.46339C2.73054 3.25582 5.38084 4.65539 8.20378 5.61224C11.1298 6.60497 14.1893 7.10908 17.2974 7.1104H17.2997C20.408 7.10908 23.4676 6.60497 26.3935 5.61224C29.2166 4.65501 31.8667 3.25582 34.2741 1.46113C34.6581 1.16119 34.6507 0.654248 34.4239 0.352991V0.35318ZM12.9072 23.5388C12.8146 23.4419 12.6786 23.3429 12.4501 23.3429C12.1577 23.3429 11.9841 23.545 11.9186 23.6451C10.2712 26.1519 9.42033 28.5181 9.30266 30.8957C9.29416 31.071 9.35876 31.2451 9.4802 31.3736C9.54085 31.4367 9.61358 31.4869 9.69405 31.5213C9.77453 31.5557 9.8611 31.5735 9.94862 31.5738H13.8587C14.1949 31.5738 14.4782 31.3107 14.5032 30.975C14.5882 29.8293 14.9451 28.6806 15.5945 27.4733C15.8196 27.0559 15.6447 26.6636 15.5152 26.4958C14.8707 25.6578 14.0816 24.7639 12.9074 23.5386L12.9072 23.5388ZM17.1138 9.7573C18.3411 9.7573 19.053 9.68364 19.3033 9.68364C19.606 9.68364 19.8956 9.93182 19.8956 10.2794C19.8956 10.381 19.8716 10.4531 19.8478 10.5173C19.685 10.9525 18.9431 12.5183 17.562 13.8616C17.4071 14.0121 17.2315 14.0403 17.1106 14.0403H17.1087C16.9884 14.0403 16.8127 14.0119 16.658 13.8616C15.2766 12.5183 14.5345 10.9525 14.3721 10.5173C14.3481 10.4531 14.3241 10.381 14.3241 10.2794C14.3241 9.93182 14.6138 9.68364 14.9168 9.68364C15.1671 9.68364 15.8787 9.7573 17.1059 9.7573H17.1138" fill="#59AFE1"/>
</g>
</g>
<defs>
<clipPath id="clip0_2_2">
<rect width="150" height="31.92" fill="white"/>
</clipPath>
</defs>
</svg>
